<?xml version="1.0" encoding="utf-8"?>
<!-- Generator: Adobe Illustrator 28.0.0, SVG Export Plug-In . SVG Version: 6.00 Build 0)  -->
<svg version="1.1" id="Layer_1" xmlns="http://www.w3.org/2000/svg" xmlns:xlink="http://www.w3.org/1999/xlink" x="0px" y="0px"
	 width="24px" height="24px" viewBox="0 0 24 24" style="enable-background:new 0 0 24 24;" xml:space="preserve">
<g id="_x33_Qbhpo.tif">
	<g>
		<g>
			<path d="M7.3,16.9v3.4c0,0.3-0.2,0.5-0.5,0.5H5.4c-0.3,0-0.5-0.2-0.5-0.5v-4L7.3,16.9z"/>
			<path d="M19.2,16.3v4c0,0.3-0.2,0.5-0.5,0.5h-1.4c-0.3,0-0.5-0.2-0.5-0.5v-3.5L19.2,16.3z"/>
		</g>
		<g>
			<path d="M20.7,8.9h-0.4c-0.2,0-0.4,0.1-0.4,0.4v1.2l-1.3,0.2v0.9l1.2-0.5c0.1,0.2,0.2,0.3,0.4,0.2h0.4c0.2,0,0.4-0.2,0.4-0.5V9.3
				C21.1,9.1,20.9,8.9,20.7,8.9z"/>
			<path d="M4.2,9.2C4.2,9,4,8.8,3.8,8.8H3.3C3.1,8.8,2.9,9,2.9,9.3v1.5c0,0.2,0.2,0.4,0.4,0.5h0.4c0.2,0,0.3-0.1,0.4-0.2l1.2,0.5
				v-0.8l-1.2-0.2L4.2,9.2L4.2,9.2z"/>
		</g>
		<path d="M19.2,12.4c-0.8-6.5-1.5-9-1.8-9.8c-0.1-0.2-0.2-0.3-0.4-0.3H7.2C6.9,2.3,6.7,2.5,6.6,2.7c-0.4,0.9-1.1,3.5-1.8,9.6
			c-0.9,8,1.2,7.8,7.2,7.8S20.3,20.3,19.2,12.4z M17.8,9.8c0.1,0.4,0.1,0.4-0.1,0.4c-3.6,0-8,0-11.4,0l-0.1-0.1
			c0.7-4,0.1-0.7,0.8-4.4c0-0.1,0.1-0.2,0.2-0.2c3.3-0.1,6.4,0,9.7,0c0.3,0.2,0.2,0.1,0.3,0.3 M8.3,15.7c-0.9,0-1.7-0.1-2.2-0.3
			c-0.3,0-0.4-0.3-0.5-0.6c0-0.3,0-0.4,0-0.8c0-0.1,0.1-0.1,0.2-0.1c1.1,0.5,1.4,0.3,2,0.5c0.4,0.2,0.6,0.8,0.6,1
			C8.5,15.6,8.4,15.7,8.3,15.7z M14.5,14.9c0,0.1-0.1,1-0.1,1.1c-0.1,0.4-0.5,0.7-0.8,0.7c-1.1,0.1-2.1,0.1-3.2,0
			c-0.4,0-0.7-0.3-0.8-0.7c0-0.1,0-1-0.1-1.1c-0.1-0.2,0.1-0.5,0.3-0.5h4.5C14.4,14.4,14.6,14.7,14.5,14.9z M18.5,14.8
			c0,0.3-0.2,0.5-0.5,0.6c-0.5,0.1-1.3,0.2-2.2,0.3c-0.1,0-0.1-0.1-0.1-0.2c0-0.3,0.2-0.8,0.6-1c0.5-0.2,1.1-0.1,2-0.6
			C18.4,13.9,18.5,14.7,18.5,14.8C18.6,15.1,18.5,14.5,18.5,14.8z"/>
	</g>
</g>
</svg>
